<svg width="3025" height="1916" xmlns="http://www.w3.org/2000/svg" xmlns:xlink="http://www.w3.org/1999/xlink" xml:space="preserve" overflow="hidden"><defs><clipPath id="clip0"><rect x="728" y="302" width="3025" height="1916"/></clipPath></defs><g clip-path="url(#clip0)" transform="translate(-728 -302)"><path d="M734.5 623.4C734.5 606.334 748.334 592.5 765.4 592.5L1320.6 592.5C1337.67 592.5 1351.5 606.334 1351.5 623.4L1351.5 870.6C1351.5 887.666 1337.67 901.5 1320.6 901.5L765.4 901.5C748.334 901.5 734.5 887.666 734.5 870.6Z" stroke="#FFFFFF" stroke-width="4.58333" stroke-linecap="butt" stroke-linejoin="miter" stroke-miterlimit="8" stroke-opacity="1" fill="#4472C4" fill-rule="evenodd" fill-opacity="1"/><text fill="#FFFFFF" fill-opacity="1" font-family="Calibri,Calibri_MSFontService,sans-serif" font-style="normal" font-variant="normal" font-weight="400" font-stretch="normal" font-size="138" text-anchor="start" direction="ltr" writing-mode="lr-tb" unicode-bidi="normal" text-decoration="none" transform="matrix(1 0 0 1 843.589 793)">UI</text><text fill="#FFFFFF" fill-opacity="1" font-family="Microsoft YaHei,Microsoft YaHei_MSFontService,sans-serif" font-style="normal" font-variant="normal" font-weight="400" font-stretch="normal" font-size="138" text-anchor="start" direction="ltr" writing-mode="lr-tb" unicode-bidi="normal" text-decoration="none" transform="matrix(1 0 0 1 966.469 793)">绘制</text><path d="M796.5 901.5 796.5 1132.99 858.232 1132.99" stroke="#34599C" stroke-width="4.58333" stroke-linecap="butt" stroke-linejoin="miter" stroke-miterlimit="8" stroke-opacity="1" fill="none" fill-rule="evenodd"/><path d="M857.5 1009.4C857.5 992.335 871.335 978.5 888.4 978.5L1320.6 978.5C1337.67 978.5 1351.5 992.335 1351.5 1009.4L1351.5 1256.6C1351.5 1273.67 1337.67 1287.5 1320.6 1287.5L888.4 1287.5C871.335 1287.5 857.5 1273.67 857.5 1256.6Z" stroke="#4472C4" stroke-width="4.58333" stroke-linecap="butt" stroke-linejoin="miter" stroke-miterlimit="8" stroke-opacity="1" fill="#FFFFFF" fill-rule="evenodd" fill-opacity="0.901961"/><text fill="#000000" fill-opacity="1" font-family="Microsoft YaHei,Microsoft YaHei_MSFontService,sans-serif" font-style="normal" font-variant="normal" font-weight="400" font-stretch="normal" font-size="87" text-anchor="start" direction="ltr" writing-mode="lr-tb" unicode-bidi="normal" text-decoration="none" transform="matrix(1 0 0 1 1017.18 1161)">绘制</text><path d="M796.5 901.5 796.5 1518.82 858.232 1518.82" stroke="#34599C" stroke-width="4.58333" stroke-linecap="butt" stroke-linejoin="miter" stroke-miterlimit="8" stroke-opacity="1" fill="none" fill-rule="evenodd"/><path d="M857.5 1395.4C857.5 1378.33 871.335 1364.5 888.4 1364.5L1320.6 1364.5C1337.67 1364.5 1351.5 1378.33 1351.5 1395.4L1351.5 1642.6C1351.5 1659.67 1337.67 1673.5 1320.6 1673.5L888.4 1673.5C871.335 1673.5 857.5 1659.67 857.5 1642.6Z" stroke="#4472C4" stroke-width="4.58333" stroke-linecap="butt" stroke-linejoin="miter" stroke-miterlimit="8" stroke-opacity="1" fill="#FFFFFF" fill-rule="evenodd" fill-opacity="0.901961"/><text fill="#000000" fill-opacity="1" font-family="Microsoft YaHei,Microsoft YaHei_MSFontService,sans-serif" font-style="normal" font-variant="normal" font-weight="400" font-stretch="normal" font-size="87" text-anchor="start" direction="ltr" writing-mode="lr-tb" unicode-bidi="normal" text-decoration="none" transform="matrix(1 0 0 1 1017.18 1547)">刷新</text><path d="M1506.5 623.4C1506.5 606.334 1520.33 592.5 1537.4 592.5L2092.6 592.5C2109.67 592.5 2123.5 606.334 2123.5 623.4L2123.5 870.6C2123.5 887.666 2109.67 901.5 2092.6 901.5L1537.4 901.5C1520.33 901.5 1506.5 887.666 1506.5 870.6Z" stroke="#FFFFFF" stroke-width="4.58333" stroke-linecap="butt" stroke-linejoin="miter" stroke-miterlimit="8" stroke-opacity="1" fill="#4472C4" fill-rule="evenodd" fill-opacity="1"/><text fill="#FFFFFF" fill-opacity="1" font-family="Microsoft YaHei,Microsoft YaHei_MSFontService,sans-serif" font-style="normal" font-variant="normal" font-weight="400" font-stretch="normal" font-size="138" text-anchor="start" direction="ltr" writing-mode="lr-tb" unicode-bidi="normal" text-decoration="none" transform="matrix(1 0 0 1 1539.18 793)">应用启动</text><path d="M1567.5 901.5 1567.5 1132.99 1629.23 1132.99" stroke="#34599C" stroke-width="4.58333" stroke-linecap="butt" stroke-linejoin="miter" stroke-miterlimit="8" stroke-opacity="1" fill="none" fill-rule="evenodd"/><path d="M1629.5 1009.4C1629.5 992.335 1643.33 978.5 1660.4 978.5L2092.6 978.5C2109.67 978.5 2123.5 992.335 2123.5 1009.4L2123.5 1256.6C2123.5 1273.67 2109.67 1287.5 2092.6 1287.5L1660.4 1287.5C1643.33 1287.5 1629.5 1273.67 1629.5 1256.6Z" stroke="#4472C4" stroke-width="4.58333" stroke-linecap="butt" stroke-linejoin="miter" stroke-miterlimit="8" stroke-opacity="1" fill="#FFFFFF" fill-rule="evenodd" fill-opacity="0.901961"/><text fill="#000000" fill-opacity="1" font-family="Microsoft YaHei,Microsoft YaHei_MSFontService,sans-serif" font-style="normal" font-variant="normal" font-weight="400" font-stretch="normal" font-size="87" text-anchor="start" direction="ltr" writing-mode="lr-tb" unicode-bidi="normal" text-decoration="none" transform="matrix(1 0 0 1 1701.74 1161)">安装启动</text><path d="M1567.5 901.5 1567.5 1518.82 1629.23 1518.82" stroke="#34599C" stroke-width="4.58333" stroke-linecap="butt" stroke-linejoin="miter" stroke-miterlimit="8" stroke-opacity="1" fill="none" fill-rule="evenodd"/><path d="M1629.5 1395.4C1629.5 1378.33 1643.33 1364.5 1660.4 1364.5L2092.6 1364.5C2109.67 1364.5 2123.5 1378.33 2123.5 1395.4L2123.5 1642.6C2123.5 1659.67 2109.67 1673.5 2092.6 1673.5L1660.4 1673.5C1643.33 1673.5 1629.5 1659.67 1629.5 1642.6Z" stroke="#4472C4" stroke-width="4.58333" stroke-linecap="butt" stroke-linejoin="miter" stroke-miterlimit="8" stroke-opacity="1" fill="#FFFFFF" fill-rule="evenodd" fill-opacity="0.901961"/><text fill="#000000" fill-opacity="1" font-family="Microsoft YaHei,Microsoft YaHei_MSFontService,sans-serif" font-style="normal" font-variant="normal" font-weight="400" font-stretch="normal" font-size="87" text-anchor="start" direction="ltr" writing-mode="lr-tb" unicode-bidi="normal" text-decoration="none" transform="matrix(1 0 0 1 1745.28 1547)">冷启动</text><path d="M1567.5 901.5 1567.5 1904.64 1629.23 1904.64" stroke="#34599C" stroke-width="4.58333" stroke-linecap="butt" stroke-linejoin="miter" stroke-miterlimit="8" stroke-opacity="1" fill="none" fill-rule="evenodd"/><path d="M1629.5 1781.3C1629.5 1764.29 1643.29 1750.5 1660.3 1750.5L2092.7 1750.5C2109.71 1750.5 2123.5 1764.29 2123.5 1781.3L2123.5 2027.7C2123.5 2044.71 2109.71 2058.5 2092.7 2058.5L1660.3 2058.5C1643.29 2058.5 1629.5 2044.71 1629.5 2027.7Z" stroke="#4472C4" stroke-width="4.58333" stroke-linecap="butt" stroke-linejoin="miter" stroke-miterlimit="8" stroke-opacity="1" fill="#FFFFFF" fill-rule="evenodd" fill-opacity="0.901961"/><text fill="#000000" fill-opacity="1" font-family="Microsoft YaHei,Microsoft YaHei_MSFontService,sans-serif" font-style="normal" font-variant="normal" font-weight="400" font-stretch="normal" font-size="87" text-anchor="start" direction="ltr" writing-mode="lr-tb" unicode-bidi="normal" text-decoration="none" transform="matrix(1 0 0 1 1745.28 1933)">热启动</text><path d="M2277.5 623.4C2277.5 606.334 2291.33 592.5 2308.4 592.5L2863.6 592.5C2880.67 592.5 2894.5 606.334 2894.5 623.4L2894.5 870.6C2894.5 887.666 2880.67 901.5 2863.6 901.5L2308.4 901.5C2291.33 901.5 2277.5 887.666 2277.5 870.6Z" stroke="#FFFFFF" stroke-width="4.58333" stroke-linecap="butt" stroke-linejoin="miter" stroke-miterlimit="8" stroke-opacity="1" fill="#4472C4" fill-rule="evenodd" fill-opacity="1"/><text fill="#FFFFFF" fill-opacity="1" font-family="Microsoft YaHei,Microsoft YaHei_MSFontService,sans-serif" font-style="normal" font-variant="normal" font-weight="400" font-stretch="normal" font-size="138" text-anchor="start" direction="ltr" writing-mode="lr-tb" unicode-bidi="normal" text-decoration="none" transform="matrix(1 0 0 1 2310.82 793)">页面跳转</text><path d="M2339.5 901.5 2339.5 1132.99 2401.23 1132.99" stroke="#34599C" stroke-width="4.58333" stroke-linecap="butt" stroke-linejoin="miter" stroke-miterlimit="8" stroke-opacity="1" fill="none" fill-rule="evenodd"/><path d="M2401.5 1009.4C2401.5 992.335 2415.33 978.5 2432.4 978.5L2863.6 978.5C2880.67 978.5 2894.5 992.335 2894.5 1009.4L2894.5 1256.6C2894.5 1273.67 2880.67 1287.5 2863.6 1287.5L2432.4 1287.5C2415.33 1287.5 2401.5 1273.67 2401.5 1256.6Z" stroke="#4472C4" stroke-width="4.58333" stroke-linecap="butt" stroke-linejoin="miter" stroke-miterlimit="8" stroke-opacity="1" fill="#FFFFFF" fill-rule="evenodd" fill-opacity="0.901961"/><text fill="#000000" fill-opacity="1" font-family="Microsoft YaHei,Microsoft YaHei_MSFontService,sans-serif" font-style="normal" font-variant="normal" font-weight="400" font-stretch="normal" font-size="87" text-anchor="start" direction="ltr" writing-mode="lr-tb" unicode-bidi="normal" text-decoration="none" transform="matrix(1 0 0 1 2429.85 1161)">页面间切换</text><path d="M2339.5 901.5 2339.5 1518.82 2401.23 1518.82" stroke="#34599C" stroke-width="4.58333" stroke-linecap="butt" stroke-linejoin="miter" stroke-miterlimit="8" stroke-opacity="1" fill="none" fill-rule="evenodd"/><path d="M2401.5 1395.4C2401.5 1378.33 2415.33 1364.5 2432.4 1364.5L2863.6 1364.5C2880.67 1364.5 2894.5 1378.33 2894.5 1395.4L2894.5 1642.6C2894.5 1659.67 2880.67 1673.5 2863.6 1673.5L2432.4 1673.5C2415.33 1673.5 2401.5 1659.67 2401.5 1642.6Z" stroke="#4472C4" stroke-width="4.58333" stroke-linecap="butt" stroke-linejoin="miter" stroke-miterlimit="8" stroke-opacity="1" fill="#FFFFFF" fill-rule="evenodd" fill-opacity="0.901961"/><text fill="#000000" fill-opacity="1" font-family="Microsoft YaHei,Microsoft YaHei_MSFontService,sans-serif" font-style="normal" font-variant="normal" font-weight="400" font-stretch="normal" font-size="87" text-anchor="start" direction="ltr" writing-mode="lr-tb" unicode-bidi="normal" text-decoration="none" transform="matrix(1 0 0 1 2429.85 1547)">前后台切换</text><path d="M3049.5 623.4C3049.5 606.334 3063.33 592.5 3080.4 592.5L3635.6 592.5C3652.67 592.5 3666.5 606.334 3666.5 623.4L3666.5 870.6C3666.5 887.666 3652.67 901.5 3635.6 901.5L3080.4 901.5C3063.33 901.5 3049.5 887.666 3049.5 870.6Z" stroke="#FFFFFF" stroke-width="4.58333" stroke-linecap="butt" stroke-linejoin="miter" stroke-miterlimit="8" stroke-opacity="1" fill="#4472C4" fill-rule="evenodd" fill-opacity="1"/><text fill="#FFFFFF" fill-opacity="1" font-family="Microsoft YaHei,Microsoft YaHei_MSFontService,sans-serif" font-style="normal" font-variant="normal" font-weight="400" font-stretch="normal" font-size="138" text-anchor="start" direction="ltr" writing-mode="lr-tb" unicode-bidi="normal" text-decoration="none" transform="matrix(1 0 0 1 3082.47 793)">事件响应</text><path d="M3111.5 901.5 3111.5 1132.99 3173.23 1132.99" stroke="#34599C" stroke-width="4.58333" stroke-linecap="butt" stroke-linejoin="miter" stroke-miterlimit="8" stroke-opacity="1" fill="none" fill-rule="evenodd"/><path d="M3172.5 1009.4C3172.5 992.335 3186.33 978.5 3203.4 978.5L3635.6 978.5C3652.67 978.5 3666.5 992.335 3666.5 1009.4L3666.5 1256.6C3666.5 1273.67 3652.67 1287.5 3635.6 1287.5L3203.4 1287.5C3186.33 1287.5 3172.5 1273.67 3172.5 1256.6Z" stroke="#4472C4" stroke-width="4.58333" stroke-linecap="butt" stroke-linejoin="miter" stroke-miterlimit="8" stroke-opacity="1" fill="#FFFFFF" fill-rule="evenodd" fill-opacity="0.901961"/><text fill="#000000" fill-opacity="1" font-family="Microsoft YaHei,Microsoft YaHei_MSFontService,sans-serif" font-style="normal" font-variant="normal" font-weight="400" font-stretch="normal" font-size="87" text-anchor="start" direction="ltr" writing-mode="lr-tb" unicode-bidi="normal" text-decoration="none" transform="matrix(1 0 0 1 3332.12 1161)">按键</text><path d="M3111.5 901.5 3111.5 1518.82 3173.23 1518.82" stroke="#34599C" stroke-width="4.58333" stroke-linecap="butt" stroke-linejoin="miter" stroke-miterlimit="8" stroke-opacity="1" fill="none" fill-rule="evenodd"/><path d="M3172.5 1395.4C3172.5 1378.33 3186.33 1364.5 3203.4 1364.5L3635.6 1364.5C3652.67 1364.5 3666.5 1378.33 3666.5 1395.4L3666.5 1642.6C3666.5 1659.67 3652.67 1673.5 3635.6 1673.5L3203.4 1673.5C3186.33 1673.5 3172.5 1659.67 3172.5 1642.6Z" stroke="#4472C4" stroke-width="4.58333" stroke-linecap="butt" stroke-linejoin="miter" stroke-miterlimit="8" stroke-opacity="1" fill="#FFFFFF" fill-rule="evenodd" fill-opacity="0.901961"/><text fill="#000000" fill-opacity="1" font-family="Microsoft YaHei,Microsoft YaHei_MSFontService,sans-serif" font-style="normal" font-variant="normal" font-weight="400" font-stretch="normal" font-size="87" text-anchor="start" direction="ltr" writing-mode="lr-tb" unicode-bidi="normal" text-decoration="none" transform="matrix(1 0 0 1 3245.04 1547)">系统事件</text><path d="M3111.5 901.5 3111.5 1904.64 3173.23 1904.64" stroke="#34599C" stroke-width="4.58333" stroke-linecap="butt" stroke-linejoin="miter" stroke-miterlimit="8" stroke-opacity="1" fill="none" fill-rule="evenodd"/><path d="M3172.5 1781.3C3172.5 1764.29 3186.29 1750.5 3203.3 1750.5L3635.7 1750.5C3652.71 1750.5 3666.5 1764.29 3666.5 1781.3L3666.5 2027.7C3666.5 2044.71 3652.71 2058.5 3635.7 2058.5L3203.3 2058.5C3186.29 2058.5 3172.5 2044.71 3172.5 2027.7Z" stroke="#4472C4" stroke-width="4.58333" stroke-linecap="butt" stroke-linejoin="miter" stroke-miterlimit="8" stroke-opacity="1" fill="#FFFFFF" fill-rule="evenodd" fill-opacity="0.901961"/><text fill="#000000" fill-opacity="1" font-family="Microsoft YaHei,Microsoft YaHei_MSFontService,sans-serif" font-style="normal" font-variant="normal" font-weight="400" font-stretch="normal" font-size="87" text-anchor="start" direction="ltr" writing-mode="lr-tb" unicode-bidi="normal" text-decoration="none" transform="matrix(1 0 0 1 3332.12 1933)">滑动</text><text fill="#000000" fill-opacity="1" font-family="Microsoft YaHei,Microsoft YaHei_MSFontService,sans-serif" font-style="normal" font-variant="normal" font-weight="400" font-stretch="normal" font-size="83" text-anchor="start" direction="ltr" writing-mode="lr-tb" unicode-bidi="normal" text-decoration="none" transform="matrix(1 0 0 1 1849.7 411)">图</text><text fill="#000000" fill-opacity="1" font-family="DengXian,DengXian_MSFontService,sans-serif" font-style="normal" font-variant="normal" font-weight="400" font-stretch="normal" font-size="83" text-anchor="start" direction="ltr" writing-mode="lr-tb" unicode-bidi="normal" text-decoration="none" transform="matrix(1 0 0 1 1932.2 411)">：卡顿主要场景</text></g></svg>