<svg width="3800" height="1577" xmlns="http://www.w3.org/2000/svg" xmlns:xlink="http://www.w3.org/1999/xlink" xml:space="preserve" overflow="hidden"><defs><linearGradient x1="1977.5" y1="927" x2="1977.5" y2="1158.99" gradientUnits="userSpaceOnUse" spreadMethod="reflect" id="fill0"><stop offset="0" stop-color="#F7BDA4" stop-opacity="1"/><stop offset="0.5" stop-color="#F5B195" stop-opacity="1"/><stop offset="1" stop-color="#F8A581" stop-opacity="1"/></linearGradient><linearGradient x1="1977.5" y1="1729" x2="1977.5" y2="1960.99" gradientUnits="userSpaceOnUse" spreadMethod="reflect" id="fill1"><stop offset="0" stop-color="#B5D5A7" stop-opacity="1"/><stop offset="0.5" stop-color="#AACE99" stop-opacity="1"/><stop offset="1" stop-color="#9CCA86" stop-opacity="1"/></linearGradient></defs><g transform="translate(-302 -655)"><g><path d="M1095.5 1351.7C1095.5 1338.89 1105.89 1328.5 1118.7 1328.5L1536.3 1328.5C1549.11 1328.5 1559.5 1338.89 1559.5 1351.7L1559.5 1537.3C1559.5 1550.11 1549.11 1560.5 1536.3 1560.5L1118.7 1560.5C1105.89 1560.5 1095.5 1550.11 1095.5 1537.3Z" stroke="#000000" stroke-width="4.58333" stroke-linecap="butt" stroke-linejoin="miter" stroke-miterlimit="8" stroke-opacity="1" fill="#FFFFFF" fill-rule="evenodd" fill-opacity="1"/><text fill="#000000" fill-opacity="1" font-family="Microsoft YaHei,Microsoft YaHei_MSFontService,sans-serif" font-style="normal" font-variant="normal" font-weight="400" font-stretch="normal" font-size="64" text-anchor="start" direction="ltr" writing-mode="lr-tb" unicode-bidi="normal" text-decoration="none" transform="matrix(1 0 0 1 1134.57 1416)">卡顿的根本原</text><text fill="#000000" fill-opacity="1" font-family="Microsoft YaHei,Microsoft YaHei_MSFontService,sans-serif" font-style="normal" font-variant="normal" font-weight="400" font-stretch="normal" font-size="64" text-anchor="start" direction="ltr" writing-mode="lr-tb" unicode-bidi="normal" text-decoration="none" transform="matrix(1 0 0 1 1294.99 1515)">因</text><path d="M1559.41 1444.04 1745.28 1043.26" stroke="#34599C" stroke-width="4.58333" stroke-linecap="butt" stroke-linejoin="miter" stroke-miterlimit="8" stroke-opacity="1" fill="none" fill-rule="evenodd"/><path d="M1745 950.199C1745 937.387 1755.39 927 1768.2 927L2186.8 927C2199.61 927 2210 937.387 2210 950.199L2210 1135.79C2210 1148.6 2199.61 1158.99 2186.8 1158.99L1768.2 1158.99C1755.39 1158.99 1745 1148.6 1745 1135.79Z" stroke="#ED7D31" stroke-width="2.29167" stroke-linecap="butt" stroke-linejoin="miter" stroke-miterlimit="8" stroke-opacity="1" fill="url(#fill0)" fill-rule="evenodd"/><text fill="#000000" fill-opacity="1" font-family="Microsoft YaHei,Microsoft YaHei_MSFontService,sans-serif" font-style="normal" font-variant="normal" font-weight="400" font-stretch="normal" font-size="64" text-anchor="start" direction="ltr" writing-mode="lr-tb" unicode-bidi="normal" text-decoration="none" transform="matrix(1 0 0 1 1849.28 1064)">界面绘制</text><path d="M2209.94 1043.26 2395.81 776.075" stroke="#3D67B1" stroke-width="4.58333" stroke-linecap="butt" stroke-linejoin="miter" stroke-miterlimit="8" stroke-opacity="1" fill="none" fill-rule="evenodd"/><path d="M2396.5 683.7C2396.5 670.887 2406.89 660.5 2419.7 660.5L3282.3 660.5C3295.11 660.5 3305.5 670.887 3305.5 683.7L3305.5 869.3C3305.5 882.113 3295.11 892.5 3282.3 892.5L2419.7 892.5C2406.89 892.5 2396.5 882.113 2396.5 869.3Z" stroke="#ED7D31" stroke-width="4.58333" stroke-linecap="butt" stroke-linejoin="miter" stroke-miterlimit="8" stroke-opacity="1" fill="#FFFFFF" fill-rule="evenodd" fill-opacity="1"/><text fill="#000000" fill-opacity="1" font-family="Microsoft YaHei,Microsoft YaHei_MSFontService,sans-serif" font-style="normal" font-variant="normal" font-weight="400" font-stretch="normal" font-size="41" text-anchor="start" direction="ltr" writing-mode="lr-tb" unicode-bidi="normal" text-decoration="none" transform="matrix(1 0 0 1 2726.79 789)">绘制的层级深</text><path d="M2210.5 1043.31 2396.37 1043.31" stroke="#3D67B1" stroke-width="4.58333" stroke-linecap="butt" stroke-linejoin="miter" stroke-miterlimit="8" stroke-opacity="1" fill="none" fill-rule="evenodd"/><path d="M2396.5 950.7C2396.5 937.887 2406.89 927.5 2419.7 927.5L3282.3 927.5C3295.11 927.5 3305.5 937.887 3305.5 950.7L3305.5 1136.3C3305.5 1149.11 3295.11 1159.5 3282.3 1159.5L2419.7 1159.5C2406.89 1159.5 2396.5 1149.11 2396.5 1136.3Z" stroke="#ED7D31" stroke-width="4.58333" stroke-linecap="butt" stroke-linejoin="miter" stroke-miterlimit="8" stroke-opacity="1" fill="#FFFFFF" fill-rule="evenodd" fill-opacity="1"/><text fill="#000000" fill-opacity="1" font-family="Microsoft YaHei,Microsoft YaHei_MSFontService,sans-serif" font-style="normal" font-variant="normal" font-weight="400" font-stretch="normal" font-size="41" text-anchor="start" direction="ltr" writing-mode="lr-tb" unicode-bidi="normal" text-decoration="none" transform="matrix(1 0 0 1 2768.04 1057)">页面复杂</text><path d="M2209.94 1043.26 2395.81 1310.44" stroke="#3D67B1" stroke-width="4.58333" stroke-linecap="butt" stroke-linejoin="miter" stroke-miterlimit="8" stroke-opacity="1" fill="none" fill-rule="evenodd"/><path d="M2396.5 1217.8C2396.5 1204.93 2406.93 1194.5 2419.8 1194.5L3282.2 1194.5C3295.07 1194.5 3305.5 1204.93 3305.5 1217.8L3305.5 1404.2C3305.5 1417.07 3295.07 1427.5 3282.2 1427.5L2419.8 1427.5C2406.93 1427.5 2396.5 1417.07 2396.5 1404.2Z" stroke="#ED7D31" stroke-width="4.58333" stroke-linecap="butt" stroke-linejoin="miter" stroke-miterlimit="8" stroke-opacity="1" fill="#FFFFFF" fill-rule="evenodd" fill-opacity="1"/><text fill="#000000" fill-opacity="1" font-family="Microsoft YaHei,Microsoft YaHei_MSFontService,sans-serif" font-style="normal" font-variant="normal" font-weight="400" font-stretch="normal" font-size="41" text-anchor="start" direction="ltr" writing-mode="lr-tb" unicode-bidi="normal" text-decoration="none" transform="matrix(1 0 0 1 2747.41 1324)">刷新不合理</text><path d="M1559.41 1444.04 1745.28 1844.81" stroke="#34599C" stroke-width="4.58333" stroke-linecap="butt" stroke-linejoin="miter" stroke-miterlimit="8" stroke-opacity="1" fill="none" fill-rule="evenodd"/><path d="M1745 1752.2C1745 1739.39 1755.39 1729 1768.2 1729L2186.8 1729C2199.61 1729 2210 1739.39 2210 1752.2L2210 1937.79C2210 1950.6 2199.61 1960.99 2186.8 1960.99L1768.2 1960.99C1755.39 1960.99 1745 1950.6 1745 1937.79Z" stroke="#70AD47" stroke-width="2.29167" stroke-linecap="butt" stroke-linejoin="miter" stroke-miterlimit="8" stroke-opacity="1" fill="url(#fill1)" fill-rule="evenodd"/><text fill="#000000" fill-opacity="1" font-family="Microsoft YaHei,Microsoft YaHei_MSFontService,sans-serif" font-style="normal" font-variant="normal" font-weight="400" font-stretch="normal" font-size="64" text-anchor="start" direction="ltr" writing-mode="lr-tb" unicode-bidi="normal" text-decoration="none" transform="matrix(1 0 0 1 1849.28 1866)">数据处理</text><path d="M2209.94 1844.81 2395.81 1577.63" stroke="#3D67B1" stroke-width="4.58333" stroke-linecap="butt" stroke-linejoin="miter" stroke-miterlimit="8" stroke-opacity="1" fill="none" fill-rule="evenodd"/><path d="M2396.5 1484.8C2396.5 1471.93 2406.93 1461.5 2419.8 1461.5L3282.2 1461.5C3295.07 1461.5 3305.5 1471.93 3305.5 1484.8L3305.5 1671.2C3305.5 1684.07 3295.07 1694.5 3282.2 1694.5L2419.8 1694.5C2406.93 1694.5 2396.5 1684.07 2396.5 1671.2Z" stroke="#70AD47" stroke-width="4.58333" stroke-linecap="butt" stroke-linejoin="miter" stroke-miterlimit="8" stroke-opacity="1" fill="#FFFFFF" fill-rule="evenodd" fill-opacity="1"/><text fill="#000000" fill-opacity="1" font-family="Microsoft YaHei,Microsoft YaHei_MSFontService,sans-serif" font-style="normal" font-variant="normal" font-weight="400" font-stretch="normal" font-size="41" text-anchor="start" direction="ltr" writing-mode="lr-tb" unicode-bidi="normal" text-decoration="none" transform="matrix(1 0 0 1 2687.72 1591)">数据处理在</text><text fill="#000000" fill-opacity="1" font-family="Calibri,Calibri_MSFontService,sans-serif" font-style="normal" font-variant="normal" font-weight="400" font-stretch="normal" font-size="41" text-anchor="start" direction="ltr" writing-mode="lr-tb" unicode-bidi="normal" text-decoration="none" transform="matrix(1 0 0 1 2893.97 1591)">UI</text><text fill="#000000" fill-opacity="1" font-family="Microsoft YaHei,Microsoft YaHei_MSFontService,sans-serif" font-style="normal" font-variant="normal" font-weight="400" font-stretch="normal" font-size="41" text-anchor="start" direction="ltr" writing-mode="lr-tb" unicode-bidi="normal" text-decoration="none" transform="matrix(1 0 0 1 2930.85 1591)">线程</text><path d="M2210.5 1845.31 2396.37 1845.31" stroke="#3D67B1" stroke-width="4.58333" stroke-linecap="butt" stroke-linejoin="miter" stroke-miterlimit="8" stroke-opacity="1" fill="none" fill-rule="evenodd"/><path d="M2396.5 1752.7C2396.5 1739.89 2406.89 1729.5 2419.7 1729.5L3282.3 1729.5C3295.11 1729.5 3305.5 1739.89 3305.5 1752.7L3305.5 1938.3C3305.5 1951.11 3295.11 1961.5 3282.3 1961.5L2419.7 1961.5C2406.89 1961.5 2396.5 1951.11 2396.5 1938.3Z" stroke="#70AD47" stroke-width="4.58333" stroke-linecap="butt" stroke-linejoin="miter" stroke-miterlimit="8" stroke-opacity="1" fill="#FFFFFF" fill-rule="evenodd" fill-opacity="1"/><text fill="#000000" fill-opacity="1" font-family="Microsoft YaHei,Microsoft YaHei_MSFontService,sans-serif" font-style="normal" font-variant="normal" font-weight="400" font-stretch="normal" font-size="41" text-anchor="start" direction="ltr" writing-mode="lr-tb" unicode-bidi="normal" text-decoration="none" transform="matrix(1 0 0 1 2419.11 1833)">数据处理占用在</text><text fill="#000000" fill-opacity="1" font-family="Calibri,Calibri_MSFontService,sans-serif" font-style="normal" font-variant="normal" font-weight="400" font-stretch="normal" font-size="41" text-anchor="start" direction="ltr" writing-mode="lr-tb" unicode-bidi="normal" text-decoration="none" transform="matrix(1 0 0 1 2717.18 1833)">CPU</text><text fill="#000000" fill-opacity="1" font-family="DengXian,DengXian_MSFontService,sans-serif" font-style="normal" font-variant="normal" font-weight="400" font-stretch="normal" font-size="41" text-anchor="start" direction="ltr" writing-mode="lr-tb" unicode-bidi="normal" text-decoration="none" transform="matrix(1 0 0 1 2786.96 1833)">高，导致主线程拿不到时间</text><text fill="#000000" fill-opacity="1" font-family="DengXian,DengXian_MSFontService,sans-serif" font-style="normal" font-variant="normal" font-weight="400" font-stretch="normal" font-size="41" text-anchor="start" direction="ltr" writing-mode="lr-tb" unicode-bidi="normal" text-decoration="none" transform="matrix(1 0 0 1 2829.91 1886)">片</text><path d="M2209.94 1844.81 2395.81 2112" stroke="#3D67B1" stroke-width="4.58333" stroke-linecap="butt" stroke-linejoin="miter" stroke-miterlimit="8" stroke-opacity="1" fill="none" fill-rule="evenodd"/><path d="M2396.5 2019.7C2396.5 2006.89 2406.89 1996.5 2419.7 1996.5L3282.3 1996.5C3295.11 1996.5 3305.5 2006.89 3305.5 2019.7L3305.5 2205.3C3305.5 2218.11 3295.11 2228.5 3282.3 2228.5L2419.7 2228.5C2406.89 2228.5 2396.5 2218.11 2396.5 2205.3Z" stroke="#70AD47" stroke-width="4.58333" stroke-linecap="butt" stroke-linejoin="miter" stroke-miterlimit="8" stroke-opacity="1" fill="#FFFFFF" fill-rule="evenodd" fill-opacity="1"/><text fill="#000000" fill-opacity="1" font-family="Microsoft YaHei,Microsoft YaHei_MSFontService,sans-serif" font-style="normal" font-variant="normal" font-weight="400" font-stretch="normal" font-size="41" text-anchor="start" direction="ltr" writing-mode="lr-tb" unicode-bidi="normal" text-decoration="none" transform="matrix(1 0 0 1 2517.14 2125)">内存增加导致</text><text fill="#000000" fill-opacity="1" font-family="Calibri,Calibri_MSFontService,sans-serif" font-style="normal" font-variant="normal" font-weight="400" font-stretch="normal" font-size="41" text-anchor="start" direction="ltr" writing-mode="lr-tb" unicode-bidi="normal" text-decoration="none" transform="matrix(1 0 0 1 2764.64 2125)">GC</text><text fill="#000000" fill-opacity="1" font-family="Microsoft YaHei,Microsoft YaHei_MSFontService,sans-serif" font-style="normal" font-variant="normal" font-weight="400" font-stretch="normal" font-size="41" text-anchor="start" direction="ltr" writing-mode="lr-tb" unicode-bidi="normal" text-decoration="none" transform="matrix(1 0 0 1 2812.68 2125)">频繁</text><text fill="#000000" fill-opacity="1" font-family="DengXian,DengXian_MSFontService,sans-serif" font-style="normal" font-variant="normal" font-weight="400" font-stretch="normal" font-size="41" text-anchor="start" direction="ltr" writing-mode="lr-tb" unicode-bidi="normal" text-decoration="none" transform="matrix(1 0 0 1 2895.18 2125)">，从而引起卡顿</text></g></g></svg>