<svg id="SvgjsSvg1001" width="1659.7641906738281" height="697.35791015625" xmlns="http://www.w3.org/2000/svg" version="1.1" xmlns:xlink="http://www.w3.org/1999/xlink" xmlns:svgjs="http://svgjs.com/svgjs"><defs id="SvgjsDefs1002"><marker id="SvgjsMarker1016" markerWidth="14" markerHeight="10" refX="10" refY="5" viewBox="0 0 14 10" orient="auto" markerUnits="userSpaceOnUse" stroke-dasharray="0,0"><path id="SvgjsPath1017" d="M0,0 L14,5 L0,10 L0,0" fill="#323232" stroke="#323232" stroke-width="1"></path></marker><marker id="SvgjsMarker1026" markerWidth="14" markerHeight="10" refX="10" refY="5" viewBox="0 0 14 10" orient="auto" markerUnits="userSpaceOnUse" stroke-dasharray="0,0"><path id="SvgjsPath1027" d="M0,0 L14,5 L0,10 L0,0" fill="#323232" stroke="#323232" stroke-width="1"></path></marker><marker id="SvgjsMarker1042" markerWidth="14" markerHeight="10" refX="10" refY="5" viewBox="0 0 14 10" orient="auto" markerUnits="userSpaceOnUse" stroke-dasharray="0,0"><path id="SvgjsPath1043" d="M0,0 L14,5 L0,10 L0,0" fill="#323232" stroke="#323232" stroke-width="1"></path></marker><marker id="SvgjsMarker1095" markerWidth="14" markerHeight="10" refX="10" refY="5" viewBox="0 0 14 10" orient="auto" markerUnits="userSpaceOnUse" stroke-dasharray="0,0"><path id="SvgjsPath1096" d="M0,0 L14,5 L0,10 L0,0" fill="#323232" stroke="#323232" stroke-width="1"></path></marker><marker id="SvgjsMarker1099" markerWidth="14" markerHeight="10" refX="10" refY="5" viewBox="0 0 14 10" orient="auto" markerUnits="userSpaceOnUse" stroke-dasharray="0,0"><path id="SvgjsPath1100" d="M0,0 L14,5 L0,10 L0,0" fill="#323232" stroke="#323232" stroke-width="1"></path></marker><marker id="SvgjsMarker1103" markerWidth="14" markerHeight="10" refX="10" refY="5" viewBox="0 0 14 10" orient="auto" markerUnits="userSpaceOnUse" stroke-dasharray="0,0"><path id="SvgjsPath1104" d="M0,0 L14,5 L0,10 L0,0" fill="#323232" stroke="#323232" stroke-width="1"></path></marker><marker id="SvgjsMarker1107" markerWidth="14" markerHeight="10" refX="10" refY="5" viewBox="0 0 14 10" orient="auto" markerUnits="userSpaceOnUse" stroke-dasharray="0,0"><path id="SvgjsPath1108" d="M0,0 L14,5 L0,10 L0,0" fill="#323232" stroke="#323232" stroke-width="1"></path></marker><marker id="SvgjsMarker1135" markerWidth="14" markerHeight="10" refX="10" refY="5" viewBox="0 0 14 10" orient="auto" markerUnits="userSpaceOnUse" stroke-dasharray="0,0"><path id="SvgjsPath1136" d="M0,0 L14,5 L0,10 L0,0" fill="#323232" stroke="#323232" stroke-width="1"></path></marker><marker id="SvgjsMarker1145" markerWidth="14" markerHeight="10" refX="10" refY="5" viewBox="0 0 14 10" orient="auto" markerUnits="userSpaceOnUse" stroke-dasharray="0,0"><path id="SvgjsPath1146" d="M0,0 L14,5 L0,10 L0,0" fill="#323232" stroke="#323232" stroke-width="1"></path></marker><marker id="SvgjsMarker1163" markerWidth="14" markerHeight="10" refX="10" refY="5" viewBox="0 0 14 10" orient="auto" markerUnits="userSpaceOnUse" stroke-dasharray="0,0"><path id="SvgjsPath1164" d="M0,0 L14,5 L0,10 L0,0" fill="#323232" stroke="#323232" stroke-width="1"></path></marker><marker id="SvgjsMarker1179" markerWidth="14" markerHeight="10" refX="10" refY="5" viewBox="0 0 14 10" orient="auto" markerUnits="userSpaceOnUse" stroke-dasharray="0,0"><path id="SvgjsPath1180" d="M0,0 L14,5 L0,10 L0,0" fill="#323232" stroke="#323232" stroke-width="1"></path></marker></defs><g id="SvgjsG1008" transform="translate(147.0028533935547,85.8238754272461)"><path id="SvgjsPath1009" d="M 0 0L 96 0L 96 54L 0 54Z" stroke="rgba(33,41,48,1)" stroke-width="2" fill-opacity="1" fill="#ffffff"></path><g id="SvgjsG1010"><text id="SvgjsText1011" font-family="微软雅黑" text-anchor="middle" font-size="13px" width="76px" fill="#323232" font-weight="400" align="middle" lineHeight="125%" anchor="middle" family="微软雅黑" size="13px" weight="400" font-style="" opacity="1" y="16.375" transform="rotate(0)"><tspan id="SvgjsTspan1012" dy="16" x="48"><tspan id="SvgjsTspan1013" style="text-decoration:;fill: rgb(50, 50, 50);">Generic type</tspan></tspan></text></g></g><g id="SvgjsG1014"><path id="SvgjsPath1015" d="M195.0028533935547 140.8238754272461L195.0028533935547 179.3238754272461L73.00285339355469 179.3238754272461L73.00285339355469 215.2238754272461" stroke="#323232" stroke-width="2" fill="none" marker-end="url(#SvgjsMarker1016)"></path></g><g id="SvgjsG1018" transform="translate(25.002853393554688,218.8238754272461)"><path id="SvgjsPath1019" d="M 0 0L 96 0L 96 54L 0 54Z" stroke="rgba(33,41,48,1)" stroke-width="2" fill-opacity="1" fill="#ffffff"></path><g id="SvgjsG1020"><text id="SvgjsText1021" font-family="微软雅黑" text-anchor="middle" font-size="13px" width="76px" fill="#323232" font-weight="400" align="middle" lineHeight="125%" anchor="middle" family="微软雅黑" size="13px" weight="400" font-style="" opacity="1" y="16.375" transform="rotate(0)"><tspan id="SvgjsTspan1022" dy="16" x="48"><tspan id="SvgjsTspan1023" style="text-decoration:;">泛型方法</tspan></tspan></text></g></g><g id="SvgjsG1024"><path id="SvgjsPath1025" d="M195.0028533935547 140.8238754272461L195.0028533935547 179.3238754272461L195.0028533935547 179.3238754272461L195.0028533935547 215.2238754272461" stroke="#323232" stroke-width="2" fill="none" marker-end="url(#SvgjsMarker1026)"></path></g><g id="SvgjsG1028" transform="translate(147.0028533935547,218.8238754272461)"><path id="SvgjsPath1029" d="M 0 0L 96 0L 96 54L 0 54Z" stroke="rgba(33,41,48,1)" stroke-width="2" fill-opacity="1" fill="#ffffff"></path><g id="SvgjsG1030"><text id="SvgjsText1031" font-family="微软雅黑" text-anchor="middle" font-size="13px" width="76px" fill="#323232" font-weight="400" align="middle" lineHeight="125%" anchor="middle" family="微软雅黑" size="13px" weight="400" font-style="" opacity="1" y="16.375" transform="rotate(0)"><tspan id="SvgjsTspan1032" dy="16" x="48"><tspan id="SvgjsTspan1033" style="text-decoration:;">泛型类</tspan></tspan></text></g></g><g id="SvgjsG1034" transform="translate(265.0028533935547,218.8238754272461)"><path id="SvgjsPath1035" d="M 0 0L 96 0L 96 54L 0 54Z" stroke="rgba(33,41,48,1)" stroke-width="2" fill-opacity="1" fill="#ffffff"></path><g id="SvgjsG1036"><text id="SvgjsText1037" font-family="微软雅黑" text-anchor="middle" font-size="13px" width="76px" fill="#323232" font-weight="400" align="middle" lineHeight="125%" anchor="middle" family="微软雅黑" size="13px" weight="400" font-style="" opacity="1" y="16.375" transform="rotate(0)"><tspan id="SvgjsTspan1038" dy="16" x="48"><tspan id="SvgjsTspan1039" style="text-decoration:;">泛型接口</tspan></tspan></text></g></g><g id="SvgjsG1040"><path id="SvgjsPath1041" d="M195.0028533935547 140.8238754272461L195.0028533935547 179.3238754272461L313.0028533935547 179.3238754272461L313.0028533935547 215.2238754272461" stroke="#323232" stroke-width="2" fill="none" marker-end="url(#SvgjsMarker1042)"></path></g><g id="SvgjsG1044" transform="translate(29.002853393554688,25.005691528320312)"><path id="SvgjsPath1045" d="M 0 0L 191 0L 191 40L 0 40Z" stroke="none" fill="none"></path><g id="SvgjsG1046"><text id="SvgjsText1047" font-family="微软雅黑" text-anchor="middle" font-size="13px" width="191px" fill="#323232" font-weight="400" align="middle" lineHeight="125%" anchor="middle" family="微软雅黑" size="13px" weight="400" font-style="" opacity="1" y="9.375" transform="rotate(0)"><tspan id="SvgjsTspan1048" dy="16" x="95.5"><tspan id="SvgjsTspan1049" style="text-decoration:;">图1 ： 泛型的类型</tspan></tspan></text></g></g><g id="SvgjsG1050" transform="translate(857.0028533935547,45.823875427246094)"><path id="SvgjsPath1051" d="M 0 0L 191 0L 191 40L 0 40Z" stroke="none" fill="none"></path><g id="SvgjsG1052"><text id="SvgjsText1053" font-family="微软雅黑" text-anchor="middle" font-size="13px" width="191px" fill="#323232" font-weight="400" align="middle" lineHeight="125%" anchor="middle" family="微软雅黑" size="13px" weight="400" font-style="" opacity="1" y="9.375" transform="rotate(0)"><tspan id="SvgjsTspan1054" dy="16" x="95.5"><tspan id="SvgjsTspan1055" style="text-decoration:;">图2 ： Java 集合/容器</tspan></tspan></text></g></g><g id="SvgjsG1056" transform="translate(629.7755813598633,118.00569152832031)"><path id="SvgjsPath1057" d="M 0 4Q 0 0 4 0L 177 0Q 181 0 181 4L 181 30Q 181 34 177 34L 4 34Q 0 34 0 30Z" stroke="rgba(33,41,48,1)" stroke-width="2" fill-opacity="1" fill="#ffffff"></path><g id="SvgjsG1058"><text id="SvgjsText1059" font-family="微软雅黑" text-anchor="middle" font-size="13px" width="161px" fill="#323232" font-weight="400" align="middle" lineHeight="125%" anchor="middle" family="微软雅黑" size="13px" weight="400" font-style="" opacity="1" y="6.375" transform="rotate(0)"><tspan id="SvgjsTspan1060" dy="16" x="90.5"><tspan id="SvgjsTspan1061" style="text-decoration:;">interface Collection&lt;E&gt;</tspan></tspan></text></g></g><g id="SvgjsG1062" transform="translate(629.7755813598633,272.8238754272461)"><path id="SvgjsPath1063" d="M 0 4Q 0 0 4 0L 177 0Q 181 0 181 4L 181 30Q 181 34 177 34L 4 34Q 0 34 0 30Z" stroke="rgba(33,41,48,1)" stroke-width="2" fill-opacity="1" fill="#95da69"></path><g id="SvgjsG1064"><text id="SvgjsText1065" font-family="微软雅黑" text-anchor="middle" font-size="13px" width="161px" fill="#323232" font-weight="400" align="middle" lineHeight="125%" anchor="middle" family="微软雅黑" size="13px" weight="400" font-style="" opacity="1" y="6.375" transform="rotate(0)"><tspan id="SvgjsTspan1066" dy="16" x="90.5"><tspan id="SvgjsTspan1067" style="text-decoration:;">interface List&lt;E&gt;</tspan></tspan></text></g></g><g id="SvgjsG1068" transform="translate(415.0028533935547,272.8238754272461)"><path id="SvgjsPath1069" d="M 0 4Q 0 0 4 0L 177 0Q 181 0 181 4L 181 30Q 181 34 177 34L 4 34Q 0 34 0 30Z" stroke="rgba(33,41,48,1)" stroke-width="2" fill-opacity="1" fill="#e9d66f"></path><g id="SvgjsG1070"><text id="SvgjsText1071" font-family="微软雅黑" text-anchor="middle" font-size="13px" width="161px" fill="#323232" font-weight="400" align="middle" lineHeight="125%" anchor="middle" family="微软雅黑" size="13px" weight="400" font-style="" opacity="1" y="6.375" transform="rotate(0)"><tspan id="SvgjsTspan1072" dy="16" x="90.5"><tspan id="SvgjsTspan1073" style="text-decoration:;">interface Set&lt;E&gt;</tspan></tspan></text></g></g><g id="SvgjsG1074" transform="translate(1235.5483093261719,272.8238754272461)"><path id="SvgjsPath1075" d="M 0 4Q 0 0 4 0L 177 0Q 181 0 181 4L 181 30Q 181 34 177 34L 4 34Q 0 34 0 30Z" stroke="rgba(33,41,48,1)" stroke-width="2" fill-opacity="1" fill="#ed77b6"></path><g id="SvgjsG1076"><text id="SvgjsText1077" font-family="微软雅黑" text-anchor="middle" font-size="13px" width="161px" fill="#323232" font-weight="400" align="middle" lineHeight="125%" anchor="middle" family="微软雅黑" size="13px" weight="400" font-style="" opacity="1" y="6.375" transform="rotate(0)"><tspan id="SvgjsTspan1078" dy="16" x="90.5"><tspan id="SvgjsTspan1079" style="text-decoration:;">interface Queue&lt;E&gt;</tspan></tspan></text></g></g><g id="SvgjsG1080" transform="translate(443.9914894104004,406.3693389892578)"><path id="SvgjsPath1081" d="M 0 4Q 0 0 4 0L 119.0227279663086 0Q 123.0227279663086 0 123.0227279663086 4L 123.0227279663086 86Q 123.0227279663086 90 119.0227279663086 90L 4 90Q 0 90 0 86Z" stroke="rgba(33,41,48,1)" stroke-width="2" fill-opacity="1" fill="#ffffff"></path><path id="SvgjsPath1082" d="M 0 30L 123.0227279663086 30M 0 60L 123.0227279663086 60" stroke="rgba(33,41,48,1)" stroke-width="2" fill="none"></path><path id="SvgjsPath1083" d="M 0 0L 123.0227279663086 0L 123.0227279663086 90L 0 90Z" stroke="none" fill="none"></path><g id="SvgjsG1084"><text id="SvgjsText1085" font-family="微软雅黑" text-anchor="middle" font-size="13px" width="104px" fill="#323232" font-weight="700" align="middle" lineHeight="125%" anchor="middle" family="微软雅黑" size="13px" weight="700" font-style="" opacity="1" y="4.375" transform="rotate(0)"><tspan id="SvgjsTspan1086" dy="16" x="62"><tspan id="SvgjsTspan1087" style="text-decoration:;">类 </tspan><tspan id="SvgjsTspan1088" style="text-decoration:;fill: rgb(50, 50, 50);">HashSet</tspan></tspan></text></g><g id="SvgjsG1089"><text id="SvgjsText1090" font-family="微软雅黑" text-anchor="start" font-size="13px" width="104px" fill="#323232" font-weight="400" align="middle" lineHeight="125%" anchor="start" family="微软雅黑" size="13px" weight="400" font-style="" opacity="1" y="34.375" transform="rotate(0)"></text></g><g id="SvgjsG1091"><text id="SvgjsText1092" font-family="微软雅黑" text-anchor="start" font-size="13px" width="104px" fill="#323232" font-weight="400" align="middle" lineHeight="125%" anchor="start" family="微软雅黑" size="13px" weight="400" font-style="" opacity="1" y="64.375" transform="rotate(0)"></text></g></g><g id="SvgjsG1093"><path id="SvgjsPath1094" d="M720.2755813598633 153.0056915283203L720.2755813598633 212.4147834777832L505.5028533935547 212.4147834777832L505.5028533935547 269.22387542724607" stroke="#323232" stroke-width="2" fill="none" marker-end="url(#SvgjsMarker1095)"></path></g><g id="SvgjsG1097"><path id="SvgjsPath1098" d="M720.2755813598633 153.0056915283203L720.2755813598633 212.4147834777832L720.2755813598633 212.4147834777832L720.2755813598633 269.22387542724607" stroke="#323232" stroke-width="2" fill="none" marker-end="url(#SvgjsMarker1099)"></path></g><g id="SvgjsG1101"><path id="SvgjsPath1102" d="M720.2755813598633 153.0056915283203L720.2755813598633 212.4147834777832L1326.0483093261719 212.4147834777832L1326.0483093261719 269.22387542724607" stroke="#323232" stroke-width="2" fill="none" marker-end="url(#SvgjsMarker1103)"></path></g><g id="SvgjsG1105"><path id="SvgjsPath1106" d="M720.2755813598633 307.8238754272461L720.2755813598633 356.9076838493347L664.139217376709 356.9076838493347L664.139217376709 403.3914922714233" stroke="#323232" stroke-width="2" fill="none" marker-end="url(#SvgjsMarker1107)"></path></g><g id="SvgjsG1109" transform="translate(586.0028533935547,406.3693389892578)"><path id="SvgjsPath1110" d="M 0 4Q 0 0 4 0L 152.2727279663086 0Q 156.2727279663086 0 156.2727279663086 4L 156.2727279663086 86Q 156.2727279663086 90 152.2727279663086 90L 4 90Q 0 90 0 86Z" stroke="rgba(33,41,48,1)" stroke-width="2" fill-opacity="1" fill="#ffffff"></path><path id="SvgjsPath1111" d="M 0 30L 156.2727279663086 30M 0 60L 156.2727279663086 60" stroke="rgba(33,41,48,1)" stroke-width="2" fill="none"></path><path id="SvgjsPath1112" d="M 0 0L 156.2727279663086 0L 156.2727279663086 90L 0 90Z" stroke="none" fill="none"></path><g id="SvgjsG1113"><text id="SvgjsText1114" font-family="微软雅黑" text-anchor="middle" font-size="13px" width="137px" fill="#323232" font-weight="700" align="middle" lineHeight="125%" anchor="middle" family="微软雅黑" size="13px" weight="700" font-style="" opacity="1" y="4.375" transform="rotate(0)"><tspan id="SvgjsTspan1115" dy="16" x="78.5"><tspan id="SvgjsTspan1116" style="text-decoration:;">类 LinkedList</tspan></tspan></text></g><g id="SvgjsG1117"><text id="SvgjsText1118" font-family="微软雅黑" text-anchor="start" font-size="13px" width="137px" fill="#323232" font-weight="400" align="middle" lineHeight="125%" anchor="start" family="微软雅黑" size="13px" weight="400" font-style="" opacity="1" y="34.375" transform="rotate(0)"></text></g><g id="SvgjsG1119"><text id="SvgjsText1120" font-family="微软雅黑" text-anchor="start" font-size="13px" width="137px" fill="#323232" font-weight="400" align="middle" lineHeight="125%" anchor="start" family="微软雅黑" size="13px" weight="400" font-style="" opacity="1" y="64.375" transform="rotate(0)"></text></g></g><g id="SvgjsG1121" transform="translate(778.2755813598633,406.3693389892578)"><path id="SvgjsPath1122" d="M 0 4Q 0 0 4 0L 152.2727279663086 0Q 156.2727279663086 0 156.2727279663086 4L 156.2727279663086 86Q 156.2727279663086 90 152.2727279663086 90L 4 90Q 0 90 0 86Z" stroke="rgba(33,41,48,1)" stroke-width="2" fill-opacity="1" fill="#ffffff"></path><path id="SvgjsPath1123" d="M 0 30L 156.2727279663086 30M 0 60L 156.2727279663086 60" stroke="rgba(33,41,48,1)" stroke-width="2" fill="none"></path><path id="SvgjsPath1124" d="M 0 0L 156.2727279663086 0L 156.2727279663086 90L 0 90Z" stroke="none" fill="none"></path><g id="SvgjsG1125"><text id="SvgjsText1126" font-family="微软雅黑" text-anchor="middle" font-size="13px" width="137px" fill="#323232" font-weight="700" align="middle" lineHeight="125%" anchor="middle" family="微软雅黑" size="13px" weight="700" font-style="" opacity="1" y="4.375" transform="rotate(0)"><tspan id="SvgjsTspan1127" dy="16" x="78.5"><tspan id="SvgjsTspan1128" style="text-decoration:;">类 ArrayList</tspan></tspan></text></g><g id="SvgjsG1129"><text id="SvgjsText1130" font-family="微软雅黑" text-anchor="start" font-size="13px" width="137px" fill="#323232" font-weight="400" align="middle" lineHeight="125%" anchor="start" family="微软雅黑" size="13px" weight="400" font-style="" opacity="1" y="34.375" transform="rotate(0)"></text></g><g id="SvgjsG1131"><text id="SvgjsText1132" font-family="微软雅黑" text-anchor="start" font-size="13px" width="137px" fill="#323232" font-weight="400" align="middle" lineHeight="125%" anchor="start" family="微软雅黑" size="13px" weight="400" font-style="" opacity="1" y="64.375" transform="rotate(0)"></text></g></g><g id="SvgjsG1133"><path id="SvgjsPath1134" d="M720.2755813598633 307.8238754272461L720.2755813598633 356.6804084777832L856.4119453430176 356.6804084777832L856.4119453430176 402.9369415283203" stroke="#323232" stroke-width="2" fill="none" marker-end="url(#SvgjsMarker1135)"></path></g><g id="SvgjsG1137" transform="translate(1453.7755813598633,118.00569152832031)"><path id="SvgjsPath1138" d="M 0 4Q 0 0 4 0L 177 0Q 181 0 181 4L 181 30Q 181 34 177 34L 4 34Q 0 34 0 30Z" stroke="rgba(33,41,48,1)" stroke-width="2" fill-opacity="1" fill="#fadcdb"></path><g id="SvgjsG1139"><text id="SvgjsText1140" font-family="微软雅黑" text-anchor="middle" font-size="13px" width="161px" fill="#323232" font-weight="400" align="middle" lineHeight="125%" anchor="middle" family="微软雅黑" size="13px" weight="400" font-style="" opacity="1" y="6.375" transform="rotate(0)"><tspan id="SvgjsTspan1141" dy="16" x="90.5"><tspan id="SvgjsTspan1142" style="text-decoration:;">interface Map&lt;K, V&gt;</tspan></tspan></text></g></g><g id="SvgjsG1143"><path id="SvgjsPath1144" d="M720.2755813598633 306.8238754272461L720.2755813598633 355.75295688034197L1138.5483093261719 355.75295688034197L1138.5483093261719 402.0820383334378" stroke="#323232" stroke-width="2" fill="none" marker-end="url(#SvgjsMarker1145)"></path></g><g id="SvgjsG1147" transform="translate(961.5483093261719,406.3693389892578)"><path id="SvgjsPath1148" d="M 0 4Q 0 0 4 0L 350 0Q 354 0 354 4L 354 86Q 354 90 350 90L 4 90Q 0 90 0 86Z" stroke="rgba(33,41,48,1)" stroke-width="2" fill-opacity="1" fill="#ffffff"></path><path id="SvgjsPath1149" d="M 0 49L 354 49M 0 69.5L 354 69.5" stroke="rgba(33,41,48,1)" stroke-width="2" fill="none"></path><path id="SvgjsPath1150" d="M 0 0L 354 0L 354 90L 0 90Z" stroke="none" fill="none"></path><g id="SvgjsG1151"><text id="SvgjsText1152" font-family="微软雅黑" text-anchor="middle" font-size="13px" width="334px" fill="#323232" font-weight="700" align="middle" lineHeight="125%" anchor="middle" family="微软雅黑" size="13px" weight="700" font-style="" opacity="1" y="13.875" transform="rotate(0)"><tspan id="SvgjsTspan1153" dy="16" x="177"><tspan id="SvgjsTspan1154" style="text-decoration:;">类 </tspan></tspan><tspan id="SvgjsTspan1155" dy="16" x="177"><tspan id="SvgjsTspan1156" style="text-decoration:;">Vector&lt;E&gt; extends AbstractList&lt;E&gt; implements List&lt;E&gt;</tspan></tspan></text></g><g id="SvgjsG1157"><text id="SvgjsText1158" font-family="微软雅黑" text-anchor="start" font-size="13px" width="334px" fill="#323232" font-weight="400" align="middle" lineHeight="125%" anchor="start" family="微软雅黑" size="13px" weight="400" font-style="" opacity="1" y="48.625" transform="rotate(0)"></text></g><g id="SvgjsG1159"><text id="SvgjsText1160" font-family="微软雅黑" text-anchor="start" font-size="13px" width="334px" fill="#323232" font-weight="400" align="middle" lineHeight="125%" anchor="start" family="微软雅黑" size="13px" weight="400" font-style="" opacity="1" y="69.125" transform="rotate(0)"></text></g></g><g id="SvgjsG1161"><path id="SvgjsPath1162" d="M1138.5483093261719 496.68203833343784L1138.5483093261719 539.1094899308791L1155.0483093261719 539.1094899308791L1155.0483093261719 578.9369415283203" stroke="#323232" stroke-width="2" fill="none" marker-end="url(#SvgjsMarker1163)"></path></g><g id="SvgjsG1165" transform="translate(1040.0483093261719,582.3693389892578)"><path id="SvgjsPath1166" d="M 0 4Q 0 0 4 0L 226 0Q 230 0 230 4L 230 86Q 230 90 226 90L 4 90Q 0 90 0 86Z" stroke="rgba(33,41,48,1)" stroke-width="2" fill-opacity="1" fill="#ffffff"></path><path id="SvgjsPath1167" d="M 0 30L 230 30M 0 60L 230 60" stroke="rgba(33,41,48,1)" stroke-width="2" fill="none"></path><path id="SvgjsPath1168" d="M 0 0L 230 0L 230 90L 0 90Z" stroke="none" fill="none"></path><g id="SvgjsG1169"><text id="SvgjsText1170" font-family="微软雅黑" text-anchor="middle" font-size="13px" width="210px" fill="#323232" font-weight="700" align="middle" lineHeight="125%" anchor="middle" family="微软雅黑" size="13px" weight="700" font-style="" opacity="1" y="4.375" transform="rotate(0)"><tspan id="SvgjsTspan1171" dy="16" x="115"><tspan id="SvgjsTspan1172" style="text-decoration:;">类 Stack&lt;E&gt;</tspan></tspan></text></g><g id="SvgjsG1173"><text id="SvgjsText1174" font-family="微软雅黑" text-anchor="start" font-size="13px" width="210px" fill="#323232" font-weight="400" align="middle" lineHeight="125%" anchor="start" family="微软雅黑" size="13px" weight="400" font-style="" opacity="1" y="34.375" transform="rotate(0)"></text></g><g id="SvgjsG1175"><text id="SvgjsText1176" font-family="微软雅黑" text-anchor="start" font-size="13px" width="210px" fill="#323232" font-weight="400" align="middle" lineHeight="125%" anchor="start" family="微软雅黑" size="13px" weight="400" font-style="" opacity="1" y="64.375" transform="rotate(0)"></text></g></g><g id="SvgjsG1177"><path id="SvgjsPath1178" d="M505.5028533935547 307.8238754272461L505.5028533935547 356.1804084777832L505.5028533935547 356.1804084777832L505.5028533935547 401.9369415283203" stroke="#323232" stroke-width="2" fill="none" marker-end="url(#SvgjsMarker1179)"></path></g><g id="SvgjsG1181" transform="translate(425.9914894104004,563.5511474609375)"><path id="SvgjsPath1182" d="M 0 0L 149.55681991577148 0L 149.55681991577148 36L 0 36Z" stroke="rgba(33,41,48,1)" stroke-width="2" fill-opacity="1" fill="#e9d66f"></path><g id="SvgjsG1183"><text id="SvgjsText1184" font-family="微软雅黑" text-anchor="middle" font-size="13px" width="130px" fill="#000000" font-weight="700" align="middle" lineHeight="125%" anchor="middle" family="微软雅黑" size="13px" weight="700" font-style="" opacity="1" y="7.375" transform="rotate(0)"><tspan id="SvgjsTspan1185" dy="16" x="75"><tspan id="SvgjsTspan1186" style="text-decoration:;">没有顺序，不可重复</tspan></tspan></text></g></g><g id="SvgjsG1187" transform="translate(425.9914894104004,610.3693389892578)"><path id="SvgjsPath1188" d="M 0 4Q 0 0 4 0L 145.55681991577148 0Q 149.55681991577148 0 149.55681991577148 4L 149.55681991577148 30Q 149.55681991577148 34 145.55681991577148 34L 4 34Q 0 34 0 30Z" stroke="rgba(33,41,48,1)" stroke-width="2" fill-opacity="1" fill="#95da69"></path><g id="SvgjsG1189"><text id="SvgjsText1190" font-family="微软雅黑" text-anchor="middle" font-size="13px" width="130px" fill="#323232" font-weight="400" align="middle" lineHeight="125%" anchor="middle" family="微软雅黑" size="13px" weight="400" font-style="" opacity="1" y="6.375" transform="rotate(0)"><tspan id="SvgjsTspan1191" dy="16" x="75"><tspan id="SvgjsTspan1192" style="text-decoration:;">有顺序可以重复</tspan></tspan></text></g></g></svg>